<svg width="88" height="78" viewBox="0 0 88 78" fill="none" xmlns="http://www.w3.org/2000/svg">
<path d="M88 78L44 78L44 30.9524L88 30.9524L88 78Z" fill="#FFAE00"/>
<path d="M88 5.54323e-06L88 43.3333L54 43.3333L88 5.54323e-06Z" fill="#FFAE00"/>
<path d="M44 1.69663e-06L44 43.3333L78 43.3333L44 1.69663e-06Z" fill="#FFAE00"/>
<path d="M44 78L-2.86102e-06 78L1.25201e-06 30.9524L44 30.9524L44 78Z" fill="#FFAE00"/>
<path d="M44 1.69663e-06L44 43.3333L9.99999 43.3333L44 1.69663e-06Z" fill="#FFAE00"/>
<path d="M-3.67144e-06 -2.14997e-06L4.5946e-05 43.3333L34 43.3333L-3.67144e-06 -2.14997e-06Z" fill="#FFAE00"/>
</svg>
