<svg width="46" height="45" viewBox="0 0 46 45" fill="none" xmlns="http://www.w3.org/2000/svg">
<rect width="46" height="45" rx="3" fill="#7F509F"/>
<path d="M25.373 8.22168C25.6728 7.98019 26.0844 7.93154 26.4316 8.09766C26.7789 8.26385 27 8.61498 27 9V16.9189H38C38.2652 16.9189 38.5195 17.0244 38.707 17.2119C38.8946 17.3994 39 17.6537 39 17.9189V29.0811C39 29.6333 38.5523 30.0811 38 30.0811H27V38C27 38.385 26.7789 38.7361 26.4316 38.9023C26.0844 39.0685 25.6728 39.0198 25.373 38.7783L7.37305 24.2783C7.1374 24.0885 7 23.8026 7 23.5C7 23.1974 7.1374 22.9115 7.37305 22.7217L25.373 8.22168Z" fill="white" stroke="#3F1BAD" stroke-width="2" stroke-linejoin="round"/>
</svg>
