<svg width="46" height="45" viewBox="0 0 46 45" fill="none" xmlns="http://www.w3.org/2000/svg">
<rect width="46" height="45" rx="3" fill="#7F509F"/>
<mask id="path-2-outside-1_30_1431" maskUnits="userSpaceOnUse" x="7" y="5" width="32" height="35" fill="black">
<rect fill="white" x="7" y="5" width="32" height="35"/>
<path fill-rule="evenodd" clip-rule="evenodd" d="M27.6138 13.8133C28.4048 14.2903 29.1173 14.8924 29.7251 15.5973C30.3244 16.2893 30.8052 17.0802 31.1474 17.9365C31.3393 18.4215 31.4915 18.922 31.6026 19.4329C31.8542 20.5944 31.8743 21.796 31.6617 22.9656C31.5445 23.5962 31.3665 24.2133 31.1302 24.8077L31.1031 24.8708C30.611 26.1325 29.73 27.3538 28.8885 28.56C28.4603 29.1706 28.0346 29.7737 27.6778 30.3592C27.5655 30.5413 27.4071 30.6887 27.2194 30.7856C27.0317 30.8825 26.8219 30.9252 26.6123 30.9093L19.8405 31.9413C19.5612 31.983 19.2767 31.9185 19.0406 31.76C18.8045 31.6015 18.633 31.36 18.5585 31.0808C18.3901 30.5764 18.1819 30.087 17.9359 29.6173C17.7316 29.2135 17.484 28.8343 17.1977 28.4868C16.8483 28.078 16.4915 27.6591 16.1371 27.1873C15.7419 26.6413 15.4006 26.0564 15.1184 25.4411C14.8217 24.7943 14.5908 24.1178 14.4294 23.4224C14.2693 22.7262 14.1908 22.0129 14.1956 21.2977C14.2028 20.554 14.2995 19.8141 14.4835 19.0948C14.6801 18.3227 14.9616 17.576 15.3226 16.8691L15.3719 16.7783C15.8372 15.9585 16.4279 15.2207 17.1214 14.593C17.8102 13.9757 18.5944 13.4802 19.4419 13.127L19.5132 13.0992C20.1465 12.8411 20.8072 12.6607 21.4818 12.5617C22.1951 12.459 22.9177 12.4421 23.6349 12.5112C24.3349 12.5765 25.0256 12.7213 25.6945 12.9427C26.3643 13.1577 27.0081 13.4498 27.6138 13.8133ZM26.6591 35.8551C26.2881 36.5112 25.7573 37.0572 25.1187 37.4398C24.5788 37.7623 23.973 37.9515 23.3494 37.9924C22.7229 38.0334 22.0967 37.9082 21.531 37.629C21.1259 37.4244 20.7606 37.1456 20.4532 36.8064L26.6591 35.8551ZM27.2497 32.2946V32.711V32.8548C27.2681 33.1278 27.2681 33.4018 27.2497 33.6749L27.1266 34.2755L19.6067 35.4211L19.4763 35.1132L19.1835 33.8818V33.5235L27.23 32.2946H27.2497ZM22.8204 7.94139C22.8275 7.68616 22.9325 7.44411 23.1127 7.26786C23.2929 7.09161 23.5336 6.99541 23.7825 7.00017H23.8465C24.0779 7.0213 24.294 7.12803 24.4543 7.30045C24.6237 7.48352 24.7172 7.72687 24.7151 7.97924C24.7164 7.99604 24.7164 8.01291 24.7151 8.02971L24.6635 10.0964C24.6647 10.1182 24.6647 10.1401 24.6635 10.162C24.6453 10.4063 24.5369 10.6342 24.3604 10.7993C24.1838 10.9644 23.9525 11.0541 23.7136 11.0502H23.6472C23.4166 11.0326 23.2007 10.9273 23.0419 10.755C22.8714 10.5716 22.7778 10.327 22.781 10.0737C22.7797 10.0569 22.7797 10.04 22.781 10.0232L22.8302 7.94896L22.8204 7.94139ZM12.4461 11.5675C12.2643 11.3916 12.1566 11.1499 12.1459 10.8938C12.1403 10.7662 12.1594 10.6388 12.2021 10.5188C12.2448 10.3989 12.3102 10.2888 12.3947 10.1949C12.4791 10.1011 12.5808 10.0253 12.694 9.97202C12.8071 9.91872 12.9294 9.88894 13.0539 9.8844C13.3031 9.87363 13.5463 9.96434 13.7306 10.1367L15.2414 11.5826C15.4243 11.7575 15.5323 11.9994 15.542 12.2556C15.5517 12.5118 15.4622 12.7615 15.2931 12.9503C15.1208 13.1371 14.8842 13.2476 14.6336 13.2582C14.3852 13.2688 14.1428 13.1781 13.9594 13.0058L12.4461 11.5675ZM9.98538 22.2212C9.86063 22.226 9.73619 22.2054 9.61918 22.1608C9.50218 22.1162 9.3949 22.0483 9.30348 21.9611C9.21207 21.8739 9.13831 21.7691 9.08642 21.6527C9.03454 21.5363 9.00554 21.4105 9.0011 21.2825C8.99509 21.1559 9.01375 21.0293 9.056 20.9102C9.09825 20.791 9.16324 20.6817 9.24717 20.5886C9.3321 20.4959 9.43412 20.4214 9.54732 20.3694C9.66052 20.3175 9.78265 20.289 9.90664 20.2858L11.9687 20.2151C12.0935 20.2094 12.2182 20.2292 12.3354 20.2733C12.4527 20.3174 12.5603 20.3849 12.6519 20.472C12.7435 20.5591 12.8172 20.6641 12.8689 20.7807C12.9206 20.8973 12.9492 21.0233 12.953 21.1513V21.1665V21.2018C12.9504 21.4399 12.8629 21.6688 12.7069 21.8453C12.6202 21.9378 12.5163 22.0116 12.4014 22.0623C12.2864 22.113 12.1627 22.1396 12.0376 22.1405H12.0007L9.96324 22.2111L9.98538 22.2212ZM35.9704 19.2209H36.0024C36.2382 19.2063 36.4709 19.2828 36.6545 19.4354C36.8479 19.5989 36.9715 19.8334 36.999 20.089C36.999 20.089 36.999 20.1142 36.999 20.1193C37.0103 20.3665 36.9289 20.6089 36.7715 20.7966C36.6141 20.9843 36.3926 21.1031 36.1525 21.1286L34.1003 21.3835C33.8513 21.4096 33.6025 21.3334 33.4083 21.1716C33.2141 21.0098 33.0904 20.7757 33.0643 20.5205C33.0389 20.2648 33.1135 20.0093 33.2718 19.8101C33.43 19.6108 33.659 19.4842 33.9083 19.4581C34.5924 19.3824 35.2814 19.3017 35.9679 19.2335L35.9704 19.2209ZM31.9053 10.7979C31.9738 10.692 32.062 10.6011 32.1649 10.5305C32.2677 10.4598 32.3833 10.4107 32.5048 10.3861C32.6263 10.3614 32.7513 10.3617 32.8727 10.3869C32.9941 10.4121 33.1094 10.4618 33.2119 10.5329C33.3145 10.6034 33.4024 10.6942 33.4704 10.7999C33.5384 10.9056 33.5852 11.0242 33.6081 11.1486C33.656 11.4003 33.6056 11.6613 33.4679 11.8754L32.3187 13.6417C32.1777 13.8545 31.9601 14.0012 31.7137 14.0495C31.4673 14.0978 31.2122 14.0437 31.0047 13.8991C30.7972 13.7546 30.6541 13.5314 30.6071 13.2787C30.56 13.026 30.6127 12.7644 30.7537 12.5516L31.9053 10.7852V10.7979ZM24.0754 20.8561H25.5247C25.5745 20.8561 25.6237 20.8661 25.6697 20.8857C25.7157 20.9052 25.7575 20.9338 25.7927 20.9699C25.8279 21.006 25.8558 21.0488 25.8748 21.096C25.8939 21.1431 25.9037 21.1937 25.9037 21.2447C25.9035 21.3219 25.8813 21.3974 25.8397 21.4617L22.3947 27.5002C22.3692 27.5439 22.3354 27.582 22.2954 27.6123C22.2555 27.6426 22.21 27.6645 22.1618 27.6767C22.1135 27.6889 22.0633 27.6912 22.0142 27.6834C21.9651 27.6756 21.9179 27.6579 21.8755 27.6314C21.8083 27.5898 21.7552 27.528 21.7235 27.4544C21.6918 27.3808 21.683 27.299 21.6983 27.2201L22.2077 23.5157L20.4852 23.546C20.4355 23.547 20.3862 23.5379 20.34 23.5193C20.2938 23.5007 20.2516 23.4728 20.2159 23.4374C20.1803 23.402 20.1518 23.3597 20.1321 23.3129C20.1124 23.2662 20.102 23.2159 20.1013 23.165C20.0992 23.0932 20.1171 23.0223 20.153 22.9606L23.5463 16.9246C23.598 16.8365 23.6815 16.7727 23.7786 16.7472C23.8758 16.7217 23.9789 16.7365 24.0655 16.7884C24.1322 16.8256 24.1862 16.8826 24.2205 16.952C24.2548 17.0214 24.2677 17.0999 24.2574 17.177L24.0852 20.8561H24.0754Z"/>
</mask>
<path fill-rule="evenodd" clip-rule="evenodd" d="M27.6138 13.8133C28.4048 14.2903 29.1173 14.8924 29.7251 15.5973C30.3244 16.2893 30.8052 17.0802 31.1474 17.9365C31.3393 18.4215 31.4915 18.922 31.6026 19.4329C31.8542 20.5944 31.8743 21.796 31.6617 22.9656C31.5445 23.5962 31.3665 24.2133 31.1302 24.8077L31.1031 24.8708C30.611 26.1325 29.73 27.3538 28.8885 28.56C28.4603 29.1706 28.0346 29.7737 27.6778 30.3592C27.5655 30.5413 27.4071 30.6887 27.2194 30.7856C27.0317 30.8825 26.8219 30.9252 26.6123 30.9093L19.8405 31.9413C19.5612 31.983 19.2767 31.9185 19.0406 31.76C18.8045 31.6015 18.633 31.36 18.5585 31.0808C18.3901 30.5764 18.1819 30.087 17.9359 29.6173C17.7316 29.2135 17.484 28.8343 17.1977 28.4868C16.8483 28.078 16.4915 27.6591 16.1371 27.1873C15.7419 26.6413 15.4006 26.0564 15.1184 25.4411C14.8217 24.7943 14.5908 24.1178 14.4294 23.4224C14.2693 22.7262 14.1908 22.0129 14.1956 21.2977C14.2028 20.554 14.2995 19.8141 14.4835 19.0948C14.6801 18.3227 14.9616 17.576 15.3226 16.8691L15.3719 16.7783C15.8372 15.9585 16.4279 15.2207 17.1214 14.593C17.8102 13.9757 18.5944 13.4802 19.4419 13.127L19.5132 13.0992C20.1465 12.8411 20.8072 12.6607 21.4818 12.5617C22.1951 12.459 22.9177 12.4421 23.6349 12.5112C24.3349 12.5765 25.0256 12.7213 25.6945 12.9427C26.3643 13.1577 27.0081 13.4498 27.6138 13.8133ZM26.6591 35.8551C26.2881 36.5112 25.7573 37.0572 25.1187 37.4398C24.5788 37.7623 23.973 37.9515 23.3494 37.9924C22.7229 38.0334 22.0967 37.9082 21.531 37.629C21.1259 37.4244 20.7606 37.1456 20.4532 36.8064L26.6591 35.8551ZM27.2497 32.2946V32.711V32.8548C27.2681 33.1278 27.2681 33.4018 27.2497 33.6749L27.1266 34.2755L19.6067 35.4211L19.4763 35.1132L19.1835 33.8818V33.5235L27.23 32.2946H27.2497ZM22.8204 7.94139C22.8275 7.68616 22.9325 7.44411 23.1127 7.26786C23.2929 7.09161 23.5336 6.99541 23.7825 7.00017H23.8465C24.0779 7.0213 24.294 7.12803 24.4543 7.30045C24.6237 7.48352 24.7172 7.72687 24.7151 7.97924C24.7164 7.99604 24.7164 8.01291 24.7151 8.02971L24.6635 10.0964C24.6647 10.1182 24.6647 10.1401 24.6635 10.162C24.6453 10.4063 24.5369 10.6342 24.3604 10.7993C24.1838 10.9644 23.9525 11.0541 23.7136 11.0502H23.6472C23.4166 11.0326 23.2007 10.9273 23.0419 10.755C22.8714 10.5716 22.7778 10.327 22.781 10.0737C22.7797 10.0569 22.7797 10.04 22.781 10.0232L22.8302 7.94896L22.8204 7.94139ZM12.4461 11.5675C12.2643 11.3916 12.1566 11.1499 12.1459 10.8938C12.1403 10.7662 12.1594 10.6388 12.2021 10.5188C12.2448 10.3989 12.3102 10.2888 12.3947 10.1949C12.4791 10.1011 12.5808 10.0253 12.694 9.97202C12.8071 9.91872 12.9294 9.88894 13.0539 9.8844C13.3031 9.87363 13.5463 9.96434 13.7306 10.1367L15.2414 11.5826C15.4243 11.7575 15.5323 11.9994 15.542 12.2556C15.5517 12.5118 15.4622 12.7615 15.2931 12.9503C15.1208 13.1371 14.8842 13.2476 14.6336 13.2582C14.3852 13.2688 14.1428 13.1781 13.9594 13.0058L12.4461 11.5675ZM9.98538 22.2212C9.86063 22.226 9.73619 22.2054 9.61918 22.1608C9.50218 22.1162 9.3949 22.0483 9.30348 21.9611C9.21207 21.8739 9.13831 21.7691 9.08642 21.6527C9.03454 21.5363 9.00554 21.4105 9.0011 21.2825C8.99509 21.1559 9.01375 21.0293 9.056 20.9102C9.09825 20.791 9.16324 20.6817 9.24717 20.5886C9.3321 20.4959 9.43412 20.4214 9.54732 20.3694C9.66052 20.3175 9.78265 20.289 9.90664 20.2858L11.9687 20.2151C12.0935 20.2094 12.2182 20.2292 12.3354 20.2733C12.4527 20.3174 12.5603 20.3849 12.6519 20.472C12.7435 20.5591 12.8172 20.6641 12.8689 20.7807C12.9206 20.8973 12.9492 21.0233 12.953 21.1513V21.1665V21.2018C12.9504 21.4399 12.8629 21.6688 12.7069 21.8453C12.6202 21.9378 12.5163 22.0116 12.4014 22.0623C12.2864 22.113 12.1627 22.1396 12.0376 22.1405H12.0007L9.96324 22.2111L9.98538 22.2212ZM35.9704 19.2209H36.0024C36.2382 19.2063 36.4709 19.2828 36.6545 19.4354C36.8479 19.5989 36.9715 19.8334 36.999 20.089C36.999 20.089 36.999 20.1142 36.999 20.1193C37.0103 20.3665 36.9289 20.6089 36.7715 20.7966C36.6141 20.9843 36.3926 21.1031 36.1525 21.1286L34.1003 21.3835C33.8513 21.4096 33.6025 21.3334 33.4083 21.1716C33.2141 21.0098 33.0904 20.7757 33.0643 20.5205C33.0389 20.2648 33.1135 20.0093 33.2718 19.8101C33.43 19.6108 33.659 19.4842 33.9083 19.4581C34.5924 19.3824 35.2814 19.3017 35.9679 19.2335L35.9704 19.2209ZM31.9053 10.7979C31.9738 10.692 32.062 10.6011 32.1649 10.5305C32.2677 10.4598 32.3833 10.4107 32.5048 10.3861C32.6263 10.3614 32.7513 10.3617 32.8727 10.3869C32.9941 10.4121 33.1094 10.4618 33.2119 10.5329C33.3145 10.6034 33.4024 10.6942 33.4704 10.7999C33.5384 10.9056 33.5852 11.0242 33.6081 11.1486C33.656 11.4003 33.6056 11.6613 33.4679 11.8754L32.3187 13.6417C32.1777 13.8545 31.9601 14.0012 31.7137 14.0495C31.4673 14.0978 31.2122 14.0437 31.0047 13.8991C30.7972 13.7546 30.6541 13.5314 30.6071 13.2787C30.56 13.026 30.6127 12.7644 30.7537 12.5516L31.9053 10.7852V10.7979ZM24.0754 20.8561H25.5247C25.5745 20.8561 25.6237 20.8661 25.6697 20.8857C25.7157 20.9052 25.7575 20.9338 25.7927 20.9699C25.8279 21.006 25.8558 21.0488 25.8748 21.096C25.8939 21.1431 25.9037 21.1937 25.9037 21.2447C25.9035 21.3219 25.8813 21.3974 25.8397 21.4617L22.3947 27.5002C22.3692 27.5439 22.3354 27.582 22.2954 27.6123C22.2555 27.6426 22.21 27.6645 22.1618 27.6767C22.1135 27.6889 22.0633 27.6912 22.0142 27.6834C21.9651 27.6756 21.9179 27.6579 21.8755 27.6314C21.8083 27.5898 21.7552 27.528 21.7235 27.4544C21.6918 27.3808 21.683 27.299 21.6983 27.2201L22.2077 23.5157L20.4852 23.546C20.4355 23.547 20.3862 23.5379 20.34 23.5193C20.2938 23.5007 20.2516 23.4728 20.2159 23.4374C20.1803 23.402 20.1518 23.3597 20.1321 23.3129C20.1124 23.2662 20.102 23.2159 20.1013 23.165C20.0992 23.0932 20.1171 23.0223 20.153 22.9606L23.5463 16.9246C23.598 16.8365 23.6815 16.7727 23.7786 16.7472C23.8758 16.7217 23.9789 16.7365 24.0655 16.7884C24.1322 16.8256 24.1862 16.8826 24.2205 16.952C24.2548 17.0214 24.2677 17.0999 24.2574 17.177L24.0852 20.8561H24.0754Z" fill="white"/>
<path fill-rule="evenodd" clip-rule="evenodd" d="M27.6138 13.8133C28.4048 14.2903 29.1173 14.8924 29.7251 15.5973C30.3244 16.2893 30.8052 17.0802 31.1474 17.9365C31.3393 18.4215 31.4915 18.922 31.6026 19.4329C31.8542 20.5944 31.8743 21.796 31.6617 22.9656C31.5445 23.5962 31.3665 24.2133 31.1302 24.8077L31.1031 24.8708C30.611 26.1325 29.73 27.3538 28.8885 28.56C28.4603 29.1706 28.0346 29.7737 27.6778 30.3592C27.5655 30.5413 27.4071 30.6887 27.2194 30.7856C27.0317 30.8825 26.8219 30.9252 26.6123 30.9093L19.8405 31.9413C19.5612 31.983 19.2767 31.9185 19.0406 31.76C18.8045 31.6015 18.633 31.36 18.5585 31.0808C18.3901 30.5764 18.1819 30.087 17.9359 29.6173C17.7316 29.2135 17.484 28.8343 17.1977 28.4868C16.8483 28.078 16.4915 27.6591 16.1371 27.1873C15.7419 26.6413 15.4006 26.0564 15.1184 25.4411C14.8217 24.7943 14.5908 24.1178 14.4294 23.4224C14.2693 22.7262 14.1908 22.0129 14.1956 21.2977C14.2028 20.554 14.2995 19.8141 14.4835 19.0948C14.6801 18.3227 14.9616 17.576 15.3226 16.8691L15.3719 16.7783C15.8372 15.9585 16.4279 15.2207 17.1214 14.593C17.8102 13.9757 18.5944 13.4802 19.4419 13.127L19.5132 13.0992C20.1465 12.8411 20.8072 12.6607 21.4818 12.5617C22.1951 12.459 22.9177 12.4421 23.6349 12.5112C24.3349 12.5765 25.0256 12.7213 25.6945 12.9427C26.3643 13.1577 27.0081 13.4498 27.6138 13.8133ZM26.6591 35.8551C26.2881 36.5112 25.7573 37.0572 25.1187 37.4398C24.5788 37.7623 23.973 37.9515 23.3494 37.9924C22.7229 38.0334 22.0967 37.9082 21.531 37.629C21.1259 37.4244 20.7606 37.1456 20.4532 36.8064L26.6591 35.8551ZM27.2497 32.2946V32.711V32.8548C27.2681 33.1278 27.2681 33.4018 27.2497 33.6749L27.1266 34.2755L19.6067 35.4211L19.4763 35.1132L19.1835 33.8818V33.5235L27.23 32.2946H27.2497ZM22.8204 7.94139C22.8275 7.68616 22.9325 7.44411 23.1127 7.26786C23.2929 7.09161 23.5336 6.99541 23.7825 7.00017H23.8465C24.0779 7.0213 24.294 7.12803 24.4543 7.30045C24.6237 7.48352 24.7172 7.72687 24.7151 7.97924C24.7164 7.99604 24.7164 8.01291 24.7151 8.02971L24.6635 10.0964C24.6647 10.1182 24.6647 10.1401 24.6635 10.162C24.6453 10.4063 24.5369 10.6342 24.3604 10.7993C24.1838 10.9644 23.9525 11.0541 23.7136 11.0502H23.6472C23.4166 11.0326 23.2007 10.9273 23.0419 10.755C22.8714 10.5716 22.7778 10.327 22.781 10.0737C22.7797 10.0569 22.7797 10.04 22.781 10.0232L22.8302 7.94896L22.8204 7.94139ZM12.4461 11.5675C12.2643 11.3916 12.1566 11.1499 12.1459 10.8938C12.1403 10.7662 12.1594 10.6388 12.2021 10.5188C12.2448 10.3989 12.3102 10.2888 12.3947 10.1949C12.4791 10.1011 12.5808 10.0253 12.694 9.97202C12.8071 9.91872 12.9294 9.88894 13.0539 9.8844C13.3031 9.87363 13.5463 9.96434 13.7306 10.1367L15.2414 11.5826C15.4243 11.7575 15.5323 11.9994 15.542 12.2556C15.5517 12.5118 15.4622 12.7615 15.2931 12.9503C15.1208 13.1371 14.8842 13.2476 14.6336 13.2582C14.3852 13.2688 14.1428 13.1781 13.9594 13.0058L12.4461 11.5675ZM9.98538 22.2212C9.86063 22.226 9.73619 22.2054 9.61918 22.1608C9.50218 22.1162 9.3949 22.0483 9.30348 21.9611C9.21207 21.8739 9.13831 21.7691 9.08642 21.6527C9.03454 21.5363 9.00554 21.4105 9.0011 21.2825C8.99509 21.1559 9.01375 21.0293 9.056 20.9102C9.09825 20.791 9.16324 20.6817 9.24717 20.5886C9.3321 20.4959 9.43412 20.4214 9.54732 20.3694C9.66052 20.3175 9.78265 20.289 9.90664 20.2858L11.9687 20.2151C12.0935 20.2094 12.2182 20.2292 12.3354 20.2733C12.4527 20.3174 12.5603 20.3849 12.6519 20.472C12.7435 20.5591 12.8172 20.6641 12.8689 20.7807C12.9206 20.8973 12.9492 21.0233 12.953 21.1513V21.1665V21.2018C12.9504 21.4399 12.8629 21.6688 12.7069 21.8453C12.6202 21.9378 12.5163 22.0116 12.4014 22.0623C12.2864 22.113 12.1627 22.1396 12.0376 22.1405H12.0007L9.96324 22.2111L9.98538 22.2212ZM35.9704 19.2209H36.0024C36.2382 19.2063 36.4709 19.2828 36.6545 19.4354C36.8479 19.5989 36.9715 19.8334 36.999 20.089C36.999 20.089 36.999 20.1142 36.999 20.1193C37.0103 20.3665 36.9289 20.6089 36.7715 20.7966C36.6141 20.9843 36.3926 21.1031 36.1525 21.1286L34.1003 21.3835C33.8513 21.4096 33.6025 21.3334 33.4083 21.1716C33.2141 21.0098 33.0904 20.7757 33.0643 20.5205C33.0389 20.2648 33.1135 20.0093 33.2718 19.8101C33.43 19.6108 33.659 19.4842 33.9083 19.4581C34.5924 19.3824 35.2814 19.3017 35.9679 19.2335L35.9704 19.2209ZM31.9053 10.7979C31.9738 10.692 32.062 10.6011 32.1649 10.5305C32.2677 10.4598 32.3833 10.4107 32.5048 10.3861C32.6263 10.3614 32.7513 10.3617 32.8727 10.3869C32.9941 10.4121 33.1094 10.4618 33.2119 10.5329C33.3145 10.6034 33.4024 10.6942 33.4704 10.7999C33.5384 10.9056 33.5852 11.0242 33.6081 11.1486C33.656 11.4003 33.6056 11.6613 33.4679 11.8754L32.3187 13.6417C32.1777 13.8545 31.9601 14.0012 31.7137 14.0495C31.4673 14.0978 31.2122 14.0437 31.0047 13.8991C30.7972 13.7546 30.6541 13.5314 30.6071 13.2787C30.56 13.026 30.6127 12.7644 30.7537 12.5516L31.9053 10.7852V10.7979ZM24.0754 20.8561H25.5247C25.5745 20.8561 25.6237 20.8661 25.6697 20.8857C25.7157 20.9052 25.7575 20.9338 25.7927 20.9699C25.8279 21.006 25.8558 21.0488 25.8748 21.096C25.8939 21.1431 25.9037 21.1937 25.9037 21.2447C25.9035 21.3219 25.8813 21.3974 25.8397 21.4617L22.3947 27.5002C22.3692 27.5439 22.3354 27.582 22.2954 27.6123C22.2555 27.6426 22.21 27.6645 22.1618 27.6767C22.1135 27.6889 22.0633 27.6912 22.0142 27.6834C21.9651 27.6756 21.9179 27.6579 21.8755 27.6314C21.8083 27.5898 21.7552 27.528 21.7235 27.4544C21.6918 27.3808 21.683 27.299 21.6983 27.2201L22.2077 23.5157L20.4852 23.546C20.4355 23.547 20.3862 23.5379 20.34 23.5193C20.2938 23.5007 20.2516 23.4728 20.2159 23.4374C20.1803 23.402 20.1518 23.3597 20.1321 23.3129C20.1124 23.2662 20.102 23.2159 20.1013 23.165C20.0992 23.0932 20.1171 23.0223 20.153 22.9606L23.5463 16.9246C23.598 16.8365 23.6815 16.7727 23.7786 16.7472C23.8758 16.7217 23.9789 16.7365 24.0655 16.7884C24.1322 16.8256 24.1862 16.8826 24.2205 16.952C24.2548 17.0214 24.2677 17.0999 24.2574 17.177L24.0852 20.8561H24.0754Z" stroke="#3F1BAD" stroke-width="4" stroke-linejoin="round" mask="url(#path-2-outside-1_30_1431)"/>
</svg>
