<svg width="68" height="74" viewBox="0 0 68 74" fill="none" xmlns="http://www.w3.org/2000/svg">
<mask id="path-1-outside-1_30_297" maskUnits="userSpaceOnUse" x="0" y="0" width="68" height="74" fill="black">
<rect fill="white" width="68" height="74"/>
<path fill-rule="evenodd" clip-rule="evenodd" d="M44.5459 17.3849C46.3538 18.462 47.9825 19.8216 49.3717 21.4134C50.7414 22.9759 51.8406 24.7617 52.6227 26.6954C53.0612 27.7906 53.4092 28.9207 53.6632 30.0743C54.2381 32.697 54.284 35.4103 53.7982 38.0514C53.5304 39.4753 53.1234 40.8687 52.5833 42.211L52.5214 42.3534C51.3965 45.2024 49.383 47.9602 47.4594 50.6838C46.4807 52.0627 45.5077 53.4246 44.6922 54.7465C44.4355 55.1577 44.0733 55.4906 43.6443 55.7094C43.2154 55.9282 42.7357 56.0247 42.2568 55.9886L26.7783 58.3191C26.1399 58.4132 25.4896 58.2676 24.9499 57.9097C24.4102 57.5519 24.0182 57.0064 23.8479 56.3761C23.4631 55.2371 22.9872 54.1319 22.4249 53.0713C21.958 52.1594 21.3921 51.3032 20.7376 50.5186C19.9389 49.5955 19.1234 48.6497 18.3134 47.5841C17.4099 46.3514 16.6299 45.0306 15.9849 43.6411C15.3066 42.1806 14.7789 40.653 14.4101 39.0828C14.044 37.5108 13.8646 35.9002 13.8758 34.2851C13.892 32.6058 14.1131 30.9351 14.5338 29.3107C14.9831 27.5674 15.6266 25.8813 16.4518 24.2851L16.5642 24.08C17.6278 22.2289 18.978 20.5628 20.5632 19.1456C22.1376 17.7516 23.9301 16.6328 25.8671 15.835L26.0302 15.7724C27.4776 15.1896 28.988 14.7822 30.5298 14.5587C32.1603 14.3268 33.8119 14.2886 35.4512 14.4447C37.0511 14.5922 38.63 14.919 40.1588 15.4191C41.6897 15.9046 43.1615 16.564 44.5459 17.3849ZM42.3636 67.1567C41.5156 68.6381 40.3023 69.8711 38.8427 70.735C37.6086 71.4632 36.2241 71.8905 34.7987 71.9828C33.3667 72.0753 31.9353 71.7928 30.6423 71.1623C29.7163 70.7003 28.8814 70.0708 28.1788 69.3048L42.3636 67.1567ZM43.7135 59.1168V60.057V60.3818C43.7557 60.9983 43.7557 61.6171 43.7135 62.2336L43.4323 63.5897L26.2439 66.1766L25.9458 65.4815L25.2765 62.7008V61.8917L43.6685 59.1168H43.7135ZM33.5895 4.12572C33.6057 3.54939 33.8458 3.00282 34.2576 2.60484C34.6694 2.20686 35.2196 1.98964 35.7886 2.00038H35.9349C36.4638 2.04811 36.9576 2.28911 37.3241 2.67844C37.7114 3.09181 37.9251 3.64132 37.9203 4.21119C37.9233 4.24912 37.9233 4.28722 37.9203 4.32515L37.8022 8.99179C37.805 9.04113 37.805 9.09059 37.8022 9.13994C37.7607 9.69155 37.5129 10.2063 37.1094 10.5791C36.7059 10.9518 36.1772 11.1545 35.6312 11.1456H35.4793C34.9522 11.1059 34.4588 10.8681 34.0957 10.479C33.7061 10.0648 33.492 9.51257 33.4995 8.94051C33.4965 8.90258 33.4965 8.86447 33.4995 8.82655L33.612 4.14282L33.5895 4.12572ZM9.87676 12.3137C9.46118 11.9165 9.21499 11.3706 9.19058 10.7923C9.17776 10.5043 9.22142 10.2166 9.31902 9.94571C9.41662 9.67487 9.56624 9.4263 9.75922 9.21438C9.9522 9.00245 10.1847 8.83137 10.4433 8.71101C10.702 8.59065 10.9816 8.52341 11.266 8.51316C11.8356 8.48884 12.3916 8.69366 12.8127 9.08296L16.2661 12.3479C16.6841 12.7427 16.9311 13.2889 16.9532 13.8674C16.9753 14.4459 16.7708 15.0098 16.3843 15.4362C15.9904 15.8581 15.4496 16.1075 14.8769 16.1313C14.309 16.1554 13.7549 15.9505 13.3358 15.5615L9.87676 12.3137ZM4.2523 36.3705C3.96715 36.3812 3.68272 36.3348 3.41528 36.234C3.14784 36.1333 2.90263 35.98 2.69368 35.7832C2.48473 35.5863 2.31613 35.3497 2.19754 35.0867C2.07894 34.8238 2.01267 34.5398 2.00252 34.2509C1.98877 33.9649 2.03143 33.6791 2.128 33.41C2.22458 33.141 2.37312 32.8942 2.56496 32.6839C2.75908 32.4746 2.99226 32.3064 3.25101 32.189C3.50975 32.0717 3.78891 32.0075 4.07232 32.0002L8.78562 31.8406C9.07085 31.8277 9.35579 31.8723 9.62386 31.9719C9.89193 32.0714 10.1378 32.224 10.3471 32.4207C10.5565 32.6174 10.7251 32.8543 10.8433 33.1177C10.9614 33.381 11.0267 33.6655 11.0354 33.9546V33.9888V34.0686C11.0295 34.6062 10.8295 35.1231 10.473 35.5215C10.2748 35.7305 10.0373 35.8971 9.77457 36.0116C9.51182 36.1261 9.22911 36.1861 8.9431 36.1882H8.85873L4.20168 36.3477L4.2523 36.3705ZM63.6466 29.5956H63.7197C64.2588 29.5626 64.7906 29.7354 65.2102 30.08C65.6524 30.4492 65.935 30.9787 65.9976 31.5557C65.9976 31.5557 65.9976 31.6127 65.9976 31.6241C66.0235 32.1825 65.8375 32.7298 65.4777 33.1536C65.1179 33.5774 64.6117 33.8457 64.0628 33.9033L59.372 34.4788C58.8031 34.5378 58.2343 34.3657 57.7903 34.0004C57.3464 33.6351 57.0637 33.1063 57.0041 32.5301C56.946 31.9528 57.1165 31.3758 57.4783 30.9259C57.8401 30.4761 58.3635 30.1902 58.9333 30.1313C60.4969 29.9603 62.0717 29.778 63.641 29.6241L63.6466 29.5956ZM54.355 10.5758C54.5114 10.3368 54.7131 10.1316 54.9482 9.97202C55.1834 9.81243 55.4475 9.70161 55.7252 9.64598C56.0029 9.59036 56.2887 9.59101 56.5661 9.64792C56.8436 9.70483 57.1071 9.81686 57.3416 9.97754C57.5761 10.1368 57.7769 10.3417 57.9324 10.5804C58.0879 10.8191 58.1948 11.0868 58.2471 11.3678C58.3565 11.9363 58.2414 12.5255 57.9265 13.0089L55.2999 16.9974C54.9777 17.478 54.4802 17.8092 53.917 17.9182C53.3537 18.0272 52.7708 17.905 52.2964 17.5786C51.8221 17.2522 51.4951 16.7483 51.3875 16.1776C51.28 15.607 51.4005 15.0165 51.7227 14.5359L54.355 10.5473V10.5758ZM36.458 33.2879H39.7708C39.8845 33.2879 39.9971 33.3106 40.1022 33.3547C40.2073 33.3988 40.3028 33.4635 40.3832 33.5449C40.4637 33.6264 40.5275 33.7232 40.571 33.8296C40.6145 33.9361 40.6369 34.0502 40.6369 34.1654C40.6367 34.3398 40.5858 34.5102 40.4907 34.6554L32.6164 48.2907C32.5581 48.3895 32.481 48.4755 32.3896 48.544C32.2982 48.6124 32.1943 48.6618 32.084 48.6894C31.9737 48.7169 31.859 48.722 31.7467 48.7045C31.6344 48.6869 31.5267 48.647 31.4297 48.587C31.2761 48.4932 31.1548 48.3537 31.0823 48.1874C31.0098 48.0212 30.9897 47.8364 31.0247 47.6582L32.189 39.2936L28.2519 39.362C28.1384 39.3642 28.0256 39.3437 27.92 39.3016C27.8143 39.2596 27.718 39.1967 27.6364 39.1167C27.5549 39.0368 27.4897 38.9413 27.4448 38.8357C27.3998 38.7301 27.3759 38.6165 27.3745 38.5016C27.3695 38.3395 27.4105 38.1793 27.4926 38.04L35.2487 24.4105C35.3668 24.2114 35.5576 24.0675 35.7797 24.0099C36.0019 23.9523 36.2374 23.9857 36.4355 24.1028C36.5878 24.1867 36.7113 24.3156 36.7897 24.4723C36.8681 24.6291 36.8975 24.8062 36.8742 24.9803L36.4805 33.2879H36.458Z"/>
</mask>
<path fill-rule="evenodd" clip-rule="evenodd" d="M44.5459 17.3849C46.3538 18.462 47.9825 19.8216 49.3717 21.4134C50.7414 22.9759 51.8406 24.7617 52.6227 26.6954C53.0612 27.7906 53.4092 28.9207 53.6632 30.0743C54.2381 32.697 54.284 35.4103 53.7982 38.0514C53.5304 39.4753 53.1234 40.8687 52.5833 42.211L52.5214 42.3534C51.3965 45.2024 49.383 47.9602 47.4594 50.6838C46.4807 52.0627 45.5077 53.4246 44.6922 54.7465C44.4355 55.1577 44.0733 55.4906 43.6443 55.7094C43.2154 55.9282 42.7357 56.0247 42.2568 55.9886L26.7783 58.3191C26.1399 58.4132 25.4896 58.2676 24.9499 57.9097C24.4102 57.5519 24.0182 57.0064 23.8479 56.3761C23.4631 55.2371 22.9872 54.1319 22.4249 53.0713C21.958 52.1594 21.3921 51.3032 20.7376 50.5186C19.9389 49.5955 19.1234 48.6497 18.3134 47.5841C17.4099 46.3514 16.6299 45.0306 15.9849 43.6411C15.3066 42.1806 14.7789 40.653 14.4101 39.0828C14.044 37.5108 13.8646 35.9002 13.8758 34.2851C13.892 32.6058 14.1131 30.9351 14.5338 29.3107C14.9831 27.5674 15.6266 25.8813 16.4518 24.2851L16.5642 24.08C17.6278 22.2289 18.978 20.5628 20.5632 19.1456C22.1376 17.7516 23.9301 16.6328 25.8671 15.835L26.0302 15.7724C27.4776 15.1896 28.988 14.7822 30.5298 14.5587C32.1603 14.3268 33.8119 14.2886 35.4512 14.4447C37.0511 14.5922 38.63 14.919 40.1588 15.4191C41.6897 15.9046 43.1615 16.564 44.5459 17.3849ZM42.3636 67.1567C41.5156 68.6381 40.3023 69.8711 38.8427 70.735C37.6086 71.4632 36.2241 71.8905 34.7987 71.9828C33.3667 72.0753 31.9353 71.7928 30.6423 71.1623C29.7163 70.7003 28.8814 70.0708 28.1788 69.3048L42.3636 67.1567ZM43.7135 59.1168V60.057V60.3818C43.7557 60.9983 43.7557 61.6171 43.7135 62.2336L43.4323 63.5897L26.2439 66.1766L25.9458 65.4815L25.2765 62.7008V61.8917L43.6685 59.1168H43.7135ZM33.5895 4.12572C33.6057 3.54939 33.8458 3.00282 34.2576 2.60484C34.6694 2.20686 35.2196 1.98964 35.7886 2.00038H35.9349C36.4638 2.04811 36.9576 2.28911 37.3241 2.67844C37.7114 3.09181 37.9251 3.64132 37.9203 4.21119C37.9233 4.24912 37.9233 4.28722 37.9203 4.32515L37.8022 8.99179C37.805 9.04113 37.805 9.09059 37.8022 9.13994C37.7607 9.69155 37.5129 10.2063 37.1094 10.5791C36.7059 10.9518 36.1772 11.1545 35.6312 11.1456H35.4793C34.9522 11.1059 34.4588 10.8681 34.0957 10.479C33.7061 10.0648 33.492 9.51257 33.4995 8.94051C33.4965 8.90258 33.4965 8.86447 33.4995 8.82655L33.612 4.14282L33.5895 4.12572ZM9.87676 12.3137C9.46118 11.9165 9.21499 11.3706 9.19058 10.7923C9.17776 10.5043 9.22142 10.2166 9.31902 9.94571C9.41662 9.67487 9.56624 9.4263 9.75922 9.21438C9.9522 9.00245 10.1847 8.83137 10.4433 8.71101C10.702 8.59065 10.9816 8.52341 11.266 8.51316C11.8356 8.48884 12.3916 8.69366 12.8127 9.08296L16.2661 12.3479C16.6841 12.7427 16.9311 13.2889 16.9532 13.8674C16.9753 14.4459 16.7708 15.0098 16.3843 15.4362C15.9904 15.8581 15.4496 16.1075 14.8769 16.1313C14.309 16.1554 13.7549 15.9505 13.3358 15.5615L9.87676 12.3137ZM4.2523 36.3705C3.96715 36.3812 3.68272 36.3348 3.41528 36.234C3.14784 36.1333 2.90263 35.98 2.69368 35.7832C2.48473 35.5863 2.31613 35.3497 2.19754 35.0867C2.07894 34.8238 2.01267 34.5398 2.00252 34.2509C1.98877 33.9649 2.03143 33.6791 2.128 33.41C2.22458 33.141 2.37312 32.8942 2.56496 32.6839C2.75908 32.4746 2.99226 32.3064 3.25101 32.189C3.50975 32.0717 3.78891 32.0075 4.07232 32.0002L8.78562 31.8406C9.07085 31.8277 9.35579 31.8723 9.62386 31.9719C9.89193 32.0714 10.1378 32.224 10.3471 32.4207C10.5565 32.6174 10.7251 32.8543 10.8433 33.1177C10.9614 33.381 11.0267 33.6655 11.0354 33.9546V33.9888V34.0686C11.0295 34.6062 10.8295 35.1231 10.473 35.5215C10.2748 35.7305 10.0373 35.8971 9.77457 36.0116C9.51182 36.1261 9.22911 36.1861 8.9431 36.1882H8.85873L4.20168 36.3477L4.2523 36.3705ZM63.6466 29.5956H63.7197C64.2588 29.5626 64.7906 29.7354 65.2102 30.08C65.6524 30.4492 65.935 30.9787 65.9976 31.5557C65.9976 31.5557 65.9976 31.6127 65.9976 31.6241C66.0235 32.1825 65.8375 32.7298 65.4777 33.1536C65.1179 33.5774 64.6117 33.8457 64.0628 33.9033L59.372 34.4788C58.8031 34.5378 58.2343 34.3657 57.7903 34.0004C57.3464 33.6351 57.0637 33.1063 57.0041 32.5301C56.946 31.9528 57.1165 31.3758 57.4783 30.9259C57.8401 30.4761 58.3635 30.1902 58.9333 30.1313C60.4969 29.9603 62.0717 29.778 63.641 29.6241L63.6466 29.5956ZM54.355 10.5758C54.5114 10.3368 54.7131 10.1316 54.9482 9.97202C55.1834 9.81243 55.4475 9.70161 55.7252 9.64598C56.0029 9.59036 56.2887 9.59101 56.5661 9.64792C56.8436 9.70483 57.1071 9.81686 57.3416 9.97754C57.5761 10.1368 57.7769 10.3417 57.9324 10.5804C58.0879 10.8191 58.1948 11.0868 58.2471 11.3678C58.3565 11.9363 58.2414 12.5255 57.9265 13.0089L55.2999 16.9974C54.9777 17.478 54.4802 17.8092 53.917 17.9182C53.3537 18.0272 52.7708 17.905 52.2964 17.5786C51.8221 17.2522 51.4951 16.7483 51.3875 16.1776C51.28 15.607 51.4005 15.0165 51.7227 14.5359L54.355 10.5473V10.5758ZM36.458 33.2879H39.7708C39.8845 33.2879 39.9971 33.3106 40.1022 33.3547C40.2073 33.3988 40.3028 33.4635 40.3832 33.5449C40.4637 33.6264 40.5275 33.7232 40.571 33.8296C40.6145 33.9361 40.6369 34.0502 40.6369 34.1654C40.6367 34.3398 40.5858 34.5102 40.4907 34.6554L32.6164 48.2907C32.5581 48.3895 32.481 48.4755 32.3896 48.544C32.2982 48.6124 32.1943 48.6618 32.084 48.6894C31.9737 48.7169 31.859 48.722 31.7467 48.7045C31.6344 48.6869 31.5267 48.647 31.4297 48.587C31.2761 48.4932 31.1548 48.3537 31.0823 48.1874C31.0098 48.0212 30.9897 47.8364 31.0247 47.6582L32.189 39.2936L28.2519 39.362C28.1384 39.3642 28.0256 39.3437 27.92 39.3016C27.8143 39.2596 27.718 39.1967 27.6364 39.1167C27.5549 39.0368 27.4897 38.9413 27.4448 38.8357C27.3998 38.7301 27.3759 38.6165 27.3745 38.5016C27.3695 38.3395 27.4105 38.1793 27.4926 38.04L35.2487 24.4105C35.3668 24.2114 35.5576 24.0675 35.7797 24.0099C36.0019 23.9523 36.2374 23.9857 36.4355 24.1028C36.5878 24.1867 36.7113 24.3156 36.7897 24.4723C36.8681 24.6291 36.8975 24.8062 36.8742 24.9803L36.4805 33.2879H36.458Z" fill="white"/>
<path fill-rule="evenodd" clip-rule="evenodd" d="M44.5459 17.3849C46.3538 18.462 47.9825 19.8216 49.3717 21.4134C50.7414 22.9759 51.8406 24.7617 52.6227 26.6954C53.0612 27.7906 53.4092 28.9207 53.6632 30.0743C54.2381 32.697 54.284 35.4103 53.7982 38.0514C53.5304 39.4753 53.1234 40.8687 52.5833 42.211L52.5214 42.3534C51.3965 45.2024 49.383 47.9602 47.4594 50.6838C46.4807 52.0627 45.5077 53.4246 44.6922 54.7465C44.4355 55.1577 44.0733 55.4906 43.6443 55.7094C43.2154 55.9282 42.7357 56.0247 42.2568 55.9886L26.7783 58.3191C26.1399 58.4132 25.4896 58.2676 24.9499 57.9097C24.4102 57.5519 24.0182 57.0064 23.8479 56.3761C23.4631 55.2371 22.9872 54.1319 22.4249 53.0713C21.958 52.1594 21.3921 51.3032 20.7376 50.5186C19.9389 49.5955 19.1234 48.6497 18.3134 47.5841C17.4099 46.3514 16.6299 45.0306 15.9849 43.6411C15.3066 42.1806 14.7789 40.653 14.4101 39.0828C14.044 37.5108 13.8646 35.9002 13.8758 34.2851C13.892 32.6058 14.1131 30.9351 14.5338 29.3107C14.9831 27.5674 15.6266 25.8813 16.4518 24.2851L16.5642 24.08C17.6278 22.2289 18.978 20.5628 20.5632 19.1456C22.1376 17.7516 23.9301 16.6328 25.8671 15.835L26.0302 15.7724C27.4776 15.1896 28.988 14.7822 30.5298 14.5587C32.1603 14.3268 33.8119 14.2886 35.4512 14.4447C37.0511 14.5922 38.63 14.919 40.1588 15.4191C41.6897 15.9046 43.1615 16.564 44.5459 17.3849ZM42.3636 67.1567C41.5156 68.6381 40.3023 69.8711 38.8427 70.735C37.6086 71.4632 36.2241 71.8905 34.7987 71.9828C33.3667 72.0753 31.9353 71.7928 30.6423 71.1623C29.7163 70.7003 28.8814 70.0708 28.1788 69.3048L42.3636 67.1567ZM43.7135 59.1168V60.057V60.3818C43.7557 60.9983 43.7557 61.6171 43.7135 62.2336L43.4323 63.5897L26.2439 66.1766L25.9458 65.4815L25.2765 62.7008V61.8917L43.6685 59.1168H43.7135ZM33.5895 4.12572C33.6057 3.54939 33.8458 3.00282 34.2576 2.60484C34.6694 2.20686 35.2196 1.98964 35.7886 2.00038H35.9349C36.4638 2.04811 36.9576 2.28911 37.3241 2.67844C37.7114 3.09181 37.9251 3.64132 37.9203 4.21119C37.9233 4.24912 37.9233 4.28722 37.9203 4.32515L37.8022 8.99179C37.805 9.04113 37.805 9.09059 37.8022 9.13994C37.7607 9.69155 37.5129 10.2063 37.1094 10.5791C36.7059 10.9518 36.1772 11.1545 35.6312 11.1456H35.4793C34.9522 11.1059 34.4588 10.8681 34.0957 10.479C33.7061 10.0648 33.492 9.51257 33.4995 8.94051C33.4965 8.90258 33.4965 8.86447 33.4995 8.82655L33.612 4.14282L33.5895 4.12572ZM9.87676 12.3137C9.46118 11.9165 9.21499 11.3706 9.19058 10.7923C9.17776 10.5043 9.22142 10.2166 9.31902 9.94571C9.41662 9.67487 9.56624 9.4263 9.75922 9.21438C9.9522 9.00245 10.1847 8.83137 10.4433 8.71101C10.702 8.59065 10.9816 8.52341 11.266 8.51316C11.8356 8.48884 12.3916 8.69366 12.8127 9.08296L16.2661 12.3479C16.6841 12.7427 16.9311 13.2889 16.9532 13.8674C16.9753 14.4459 16.7708 15.0098 16.3843 15.4362C15.9904 15.8581 15.4496 16.1075 14.8769 16.1313C14.309 16.1554 13.7549 15.9505 13.3358 15.5615L9.87676 12.3137ZM4.2523 36.3705C3.96715 36.3812 3.68272 36.3348 3.41528 36.234C3.14784 36.1333 2.90263 35.98 2.69368 35.7832C2.48473 35.5863 2.31613 35.3497 2.19754 35.0867C2.07894 34.8238 2.01267 34.5398 2.00252 34.2509C1.98877 33.9649 2.03143 33.6791 2.128 33.41C2.22458 33.141 2.37312 32.8942 2.56496 32.6839C2.75908 32.4746 2.99226 32.3064 3.25101 32.189C3.50975 32.0717 3.78891 32.0075 4.07232 32.0002L8.78562 31.8406C9.07085 31.8277 9.35579 31.8723 9.62386 31.9719C9.89193 32.0714 10.1378 32.224 10.3471 32.4207C10.5565 32.6174 10.7251 32.8543 10.8433 33.1177C10.9614 33.381 11.0267 33.6655 11.0354 33.9546V33.9888V34.0686C11.0295 34.6062 10.8295 35.1231 10.473 35.5215C10.2748 35.7305 10.0373 35.8971 9.77457 36.0116C9.51182 36.1261 9.22911 36.1861 8.9431 36.1882H8.85873L4.20168 36.3477L4.2523 36.3705ZM63.6466 29.5956H63.7197C64.2588 29.5626 64.7906 29.7354 65.2102 30.08C65.6524 30.4492 65.935 30.9787 65.9976 31.5557C65.9976 31.5557 65.9976 31.6127 65.9976 31.6241C66.0235 32.1825 65.8375 32.7298 65.4777 33.1536C65.1179 33.5774 64.6117 33.8457 64.0628 33.9033L59.372 34.4788C58.8031 34.5378 58.2343 34.3657 57.7903 34.0004C57.3464 33.6351 57.0637 33.1063 57.0041 32.5301C56.946 31.9528 57.1165 31.3758 57.4783 30.9259C57.8401 30.4761 58.3635 30.1902 58.9333 30.1313C60.4969 29.9603 62.0717 29.778 63.641 29.6241L63.6466 29.5956ZM54.355 10.5758C54.5114 10.3368 54.7131 10.1316 54.9482 9.97202C55.1834 9.81243 55.4475 9.70161 55.7252 9.64598C56.0029 9.59036 56.2887 9.59101 56.5661 9.64792C56.8436 9.70483 57.1071 9.81686 57.3416 9.97754C57.5761 10.1368 57.7769 10.3417 57.9324 10.5804C58.0879 10.8191 58.1948 11.0868 58.2471 11.3678C58.3565 11.9363 58.2414 12.5255 57.9265 13.0089L55.2999 16.9974C54.9777 17.478 54.4802 17.8092 53.917 17.9182C53.3537 18.0272 52.7708 17.905 52.2964 17.5786C51.8221 17.2522 51.4951 16.7483 51.3875 16.1776C51.28 15.607 51.4005 15.0165 51.7227 14.5359L54.355 10.5473V10.5758ZM36.458 33.2879H39.7708C39.8845 33.2879 39.9971 33.3106 40.1022 33.3547C40.2073 33.3988 40.3028 33.4635 40.3832 33.5449C40.4637 33.6264 40.5275 33.7232 40.571 33.8296C40.6145 33.9361 40.6369 34.0502 40.6369 34.1654C40.6367 34.3398 40.5858 34.5102 40.4907 34.6554L32.6164 48.2907C32.5581 48.3895 32.481 48.4755 32.3896 48.544C32.2982 48.6124 32.1943 48.6618 32.084 48.6894C31.9737 48.7169 31.859 48.722 31.7467 48.7045C31.6344 48.6869 31.5267 48.647 31.4297 48.587C31.2761 48.4932 31.1548 48.3537 31.0823 48.1874C31.0098 48.0212 30.9897 47.8364 31.0247 47.6582L32.189 39.2936L28.2519 39.362C28.1384 39.3642 28.0256 39.3437 27.92 39.3016C27.8143 39.2596 27.718 39.1967 27.6364 39.1167C27.5549 39.0368 27.4897 38.9413 27.4448 38.8357C27.3998 38.7301 27.3759 38.6165 27.3745 38.5016C27.3695 38.3395 27.4105 38.1793 27.4926 38.04L35.2487 24.4105C35.3668 24.2114 35.5576 24.0675 35.7797 24.0099C36.0019 23.9523 36.2374 23.9857 36.4355 24.1028C36.5878 24.1867 36.7113 24.3156 36.7897 24.4723C36.8681 24.6291 36.8975 24.8062 36.8742 24.9803L36.4805 33.2879H36.458Z" stroke="#3F1BAD" stroke-width="4" stroke-linejoin="round" mask="url(#path-1-outside-1_30_297)"/>
</svg>
